<?xml version="1.0" standalone="no"?>
<!DOCTYPE svg PUBLIC "-//W3C//DTD SVG 20010904//EN"
 "http://www.w3.org/TR/2001/REC-SVG-20010904/DTD/svg10.dtd">
<svg version="1.0" xmlns="http://www.w3.org/2000/svg"
 width="1080.000000pt" height="1080.000000pt" viewBox="0 0 1080.000000 1080.000000"
 preserveAspectRatio="xMidYMid meet">

<circle cx="540" cy="540" r="540" fill="#c9a86c"/>

<g transform="translate(0.000000,1080.000000) scale(0.100000,-0.100000)"
fill="#8b4a5c" stroke="none">
<path d="M100 10777 c-20 -12 -50 -33 -68 -46 l-32 -25 0 -5293 0 -5294 27
-25 c16 -13 49 -36 75 -49 l47 -25 5256 0 c4567 0 5260 2 5290 14 19 8 51 27
70 42 l35 26 0 5307 c0 5056 -1 5307 -18 5321 -9 8 -36 27 -59 43 l-43 27
-5272 0 -5273 -1 -35 -22z m5043 -3474 c109 -161 116 -218 38 -300 l-21 -22
38 -3 37 -3 3 -78 c2 -68 5 -78 20 -75 14 3 18 17 20 81 l3 77 29 0 c36 0 38
17 6 48 -39 36 -42 90 -11 161 15 33 36 68 46 77 11 9 19 22 19 29 0 18 39 50
49 39 28 -30 93 -142 106 -181 19 -57 15 -78 -26 -129 l-31 -39 24 -3 c40 -6
48 -21 48 -88 0 -34 4 -65 8 -68 20 -12 31 15 34 79 l3 70 34 5 33 5 -22 20
c-30 27 -50 68 -50 103 0 28 55 148 82 180 8 9 18 25 21 35 16 45 69 -11 128
-137 37 -78 33 -125 -14 -168 -30 -28 -28 -33 18 -40 18 -3 21 -13 25 -85 5
-80 6 -82 40 -105 56 -38 80 -82 80 -148 0 -42 -5 -64 -20 -83 -18 -23 -20
-40 -20 -175 0 -127 -2 -151 -16 -156 -9 -3 -236 -6 -504 -6 -380 0 -491 3
-497 13 -4 6 -8 75 -8 152 0 120 -3 145 -20 175 -20 37 -27 146 -9 158 5 4 14
15 19 26 6 10 28 28 50 40 l40 23 3 86 c3 84 4 87 27 87 26 0 41 15 25 25 -25
15 -51 86 -46 125 5 42 32 99 54 113 6 4 12 13 12 20 0 13 50 77 61 77 3 0 18
-17 32 -37z m-572 -945 c7 -3 12 -49 10 -101 l-1 -27 -1227 2 -1228 3 -3 54
c-2 29 -1 59 1 65 3 8 331 10 1223 9 669 -2 1221 -4 1225 -5z m4118 -2 c7 -8
11 -37 9 -68 l-3 -53 -1230 0 -1230 0 -3 62 -3 63 1208 3 c664 1 1215 3 1224
5 9 1 22 -4 28 -12z m1106 -1476 l0 -1075 -4380 -3 c-2409 -1 -4384 0 -4390 2
-7 2 -9 369 -7 1080 l2 1076 4388 -2 4387 -3 0 -1075z m-1108 -1424 c9 -4 13
-25 13 -65 0 -52 -2 -59 -22 -65 -28 -7 -6531 -8 -6550 -1 -9 4 -12 23 -10 70
l4 64 51 3 c89 5 6500 -1 6514 -6z"/>
<path d="M5086 7158 c-19 -27 -20 -48 -3 -72 16 -22 53 -14 60 13 5 20 -20 81
-34 81 -4 0 -15 -10 -23 -22z"/>
<path d="M5385 7150 c-19 -36 -19 -54 0 -70 18 -15 52 -4 60 20 7 21 -19 80
-35 80 -5 0 -16 -13 -25 -30z"/>
<path d="M5684 7156 c-19 -30 -15 -65 8 -79 36 -23 63 37 38 84 -14 25 -26 24
-46 -5z"/>
<path d="M5070 6866 c0 -43 9 -53 41 -48 35 5 43 15 35 48 -5 20 -13 24 -41
24 -30 0 -35 -3 -35 -24z"/>
<path d="M5370 6857 c0 -43 4 -46 43 -38 27 6 32 11 32 36 0 27 -3 30 -37 33
-37 3 -38 2 -38 -31z"/>
<path d="M5670 6855 c0 -36 0 -36 38 -33 34 3 37 6 37 33 0 27 -3 30 -37 33
-38 3 -38 3 -38 -33z"/>
<path d="M4987 6717 c-51 -17 -61 -90 -18 -131 24 -23 34 -26 63 -21 44 8 52
14 69 50 12 25 20 30 49 30 26 0 37 -6 46 -22 24 -50 47 -65 87 -60 43 6 77
31 77 57 0 37 76 42 90 6 11 -30 57 -66 84 -66 29 0 63 25 81 61 12 22 23 29
45 29 30 0 60 -22 60 -45 0 -17 23 -30 67 -38 74 -14 120 98 57 139 -23 16
-68 17 -429 18 -222 1 -415 -2 -428 -7z"/>
<path d="M5113 6503 c-13 -8 -46 -18 -75 -22 l-53 -6 -3 -81 -3 -81 47 -7 c59
-8 761 -8 792 0 20 6 22 12 22 84 0 84 -4 90 -58 90 -14 0 -46 10 -70 21 l-44
22 -42 -22 c-24 -11 -61 -21 -82 -21 -48 0 -114 18 -114 30 0 15 -22 12 -65
-10 -22 -11 -59 -20 -83 -20 -23 0 -62 9 -84 20 -49 24 -56 24 -85 3z"/>
<path d="M1160 4880 l0 -940 4248 2 4247 3 3 938 2 937 -4250 0 -4250 0 0
-940z m5284 344 c13 -5 16 -24 16 -105 0 -54 2 -99 4 -99 2 0 20 7 39 15 42
17 143 20 184 4 38 -14 71 -46 94 -92 17 -33 19 -56 17 -205 l-3 -167 -80 0
-80 0 -5 146 c-4 126 -8 150 -24 168 -34 37 -113 22 -135 -26 -6 -13 -11 -80
-11 -153 0 -149 4 -144 -105 -138 l-60 3 -3 315 c-1 173 0 320 3 327 5 14 119
19 149 7z m-4093 -49 c26 -9 66 -32 89 -52 l41 -36 -38 -39 c-59 -62 -68 -64
-115 -31 -36 24 -50 28 -114 28 -67 0 -75 -2 -104 -30 -89 -85 -77 -221 25
-281 58 -34 124 -30 185 10 22 14 45 26 52 26 14 0 98 -77 98 -90 0 -18 -59
-65 -110 -87 -68 -31 -185 -35 -272 -9 -80 23 -153 84 -187 155 -33 70 -37
189 -8 262 31 80 132 163 232 190 43 12 172 3 226 -16z m2986 10 c54 -16 98
-57 109 -101 13 -49 -6 -96 -57 -147 l-50 -49 38 -29 c21 -16 41 -29 45 -29 3
0 12 16 18 36 11 32 15 35 39 31 110 -22 115 -29 80 -113 l-22 -55 28 -29 c31
-32 28 -45 -28 -99 l-36 -34 -27 22 c-34 27 -62 27 -121 -1 -101 -48 -280 -17
-343 60 -25 30 -30 46 -30 88 0 64 17 98 72 146 l43 37 -21 38 c-35 62 -37 90
-14 139 45 91 152 126 277 89z m-1790 -147 c49 -12 123 -71 123 -98 0 -10 -15
-27 -35 -39 -59 -35 -80 -36 -118 -7 -57 44 -123 30 -153 -32 -50 -105 67
-200 155 -126 33 28 45 27 114 -7 48 -25 47 -47 -2 -92 -70 -63 -186 -82 -283
-47 -72 26 -99 47 -139 109 -24 37 -29 56 -29 107 0 98 35 162 115 208 70 42
152 49 252 24z m574 1 c47 -12 111 -59 137 -101 33 -54 42 -138 22 -199 -35
-103 -131 -164 -260 -163 -160 0 -270 98 -270 238 0 128 85 218 222 235 63 8
82 7 149 -10z m3199 -14 c79 -39 116 -92 126 -178 9 -74 2 -77 -185 -77 -83 0
-151 -4 -151 -8 0 -5 10 -18 23 -29 32 -29 86 -37 139 -18 61 21 69 19 106
-27 32 -40 32 -42 15 -58 -10 -9 -44 -27 -76 -40 -48 -19 -70 -22 -127 -17
-164 14 -260 102 -260 239 0 77 23 131 75 176 47 42 73 52 155 61 73 8 109 2
160 -24z m832 24 c10 -5 17 -13 15 -17 -4 -14 8 -13 46 3 22 9 55 15 75 13 36
-3 37 -4 40 -49 2 -25 -2 -57 -7 -72 -9 -23 -17 -27 -48 -27 -25 0 -48 -8 -67
-23 l-29 -24 -5 -137 c-5 -156 0 -150 -107 -144 l-60 3 -3 234 c-2 176 1 236
10 242 17 11 119 9 140 -2z m428 -77 c18 -42 43 -102 57 -132 29 -65 24 -70
95 95 l47 110 58 6 c50 6 103 2 103 -6 0 -3 -24 -64 -39 -100 -5 -11 -23 -51
-40 -88 -17 -37 -31 -70 -31 -73 0 -3 -6 -20 -14 -37 -8 -18 -33 -75 -55 -127
-55 -127 -73 -154 -122 -187 -48 -32 -144 -43 -202 -24 -56 19 -60 31 -32 89
l24 51 56 -6 c76 -8 105 22 75 75 -12 21 -121 270 -160 364 -15 37 -24 68 -19
70 5 2 44 2 88 0 l80 -3 31 -77z m-5653 63 c165 -49 213 -273 84 -394 -70 -66
-205 -88 -306 -50 -225 84 -216 370 15 452 31 11 158 6 207 -8z m1804 0 c104
-37 129 -96 129 -306 0 -168 5 -159 -92 -159 -51 0 -61 3 -65 20 -7 25 -10 25
-64 0 -59 -26 -113 -25 -176 4 -58 28 -79 54 -86 110 -13 97 67 156 209 156
46 0 85 4 88 8 3 5 -2 19 -10 31 -15 21 -22 22 -93 18 -42 -3 -87 -7 -100 -9
-25 -3 -50 27 -65 78 -7 22 13 35 84 55 49 13 196 9 241 -6z m1354 -10 c47
-22 95 -72 95 -98 0 -8 -103 -57 -120 -57 -6 0 -25 11 -42 25 -32 27 -76 32
-111 13 -36 -19 -46 -40 -47 -95 0 -45 4 -54 31 -77 42 -35 100 -36 135 -1 14
14 30 25 36 25 19 0 118 -52 118 -62 0 -5 -17 -27 -37 -49 -78 -81 -215 -100
-330 -44 -148 73 -178 262 -58 376 73 71 229 91 330 44z m1648 6 c5 -20 5 -20
43 0 21 10 55 19 77 19 l38 0 -3 -72 -3 -73 -35 -3 c-53 -4 -86 -21 -99 -48
-6 -14 -11 -73 -11 -132 0 -156 2 -152 -84 -152 -43 0 -77 5 -84 12 -9 9 -12
76 -12 240 l0 228 84 0 c74 0 84 -2 89 -19z"/>
<path d="M5211 5062 c-12 -22 7 -65 31 -70 22 -4 59 38 56 63 -4 28 -72 34
-87 7z"/>
<path d="M5163 4805 c-39 -43 7 -115 73 -115 33 0 84 18 84 29 0 3 -25 27 -54
54 -56 49 -82 57 -103 32z"/>
<path d="M3955 4896 c-47 -47 -42 -136 11 -171 27 -17 76 -20 105 -5 41 22 61
98 38 143 -31 60 -110 77 -154 33z"/>
<path d="M7132 4914 c-12 -8 -22 -24 -22 -35 0 -17 8 -19 86 -19 83 0 85 1 82
22 -6 44 -100 64 -146 32z"/>
<path d="M2755 4898 c-39 -34 -49 -92 -24 -140 21 -42 49 -54 105 -45 49 8 73
41 74 100 0 41 -5 53 -29 78 -37 37 -88 39 -126 7z"/>
<path d="M4560 4752 c-25 -21 -19 -49 15 -62 46 -17 105 15 105 57 0 21 -4 23
-49 23 -32 0 -56 -6 -71 -18z"/>
</g>
</svg>
