<svg xmlns="http://www.w3.org/2000/svg" viewBox="0 0 200 200">
  <!-- Background Circle - Maroon/Burgundy -->
  <circle cx="100" cy="100" r="98" fill="#8b4a5c"/>
  
  <!-- Cake Icon -->
  <g fill="none" stroke="#c9a86c" stroke-width="2" stroke-linecap="round" stroke-linejoin="round">
    <!-- Three candles -->
    <line x1="82" y1="50" x2="82" y2="60"/>
    <line x1="100" y1="50" x2="100" y2="60"/>
    <line x1="118" y1="50" x2="118" y2="60"/>
    
    <!-- Three flames (oval shapes) -->
    <ellipse cx="82" cy="46" rx="3" ry="4" fill="#c9a86c"/>
    <ellipse cx="100" cy="46" rx="3" ry="4" fill="#c9a86c"/>
    <ellipse cx="118" cy="46" rx="3" ry="4" fill="#c9a86c"/>
    
    <!-- Cake top layer with scalloped bottom -->
    <rect x="72" y="60" width="56" height="14" rx="1"/>
    
    <!-- Scalloped frosting decoration -->
    <path d="M72 74 Q80 82 88 74 Q96 82 104 74 Q112 82 120 74 Q128 82 128 74"/>
    
    <!-- Cake bottom layer -->
    <rect x="68" y="78" width="64" height="14" rx="1"/>
  </g>
  
  <!-- Horizontal decorative lines on sides of cake -->
  <line x1="28" y1="72" x2="64" y2="72" stroke="#c9a86c" stroke-width="2"/>
  <line x1="136" y1="72" x2="172" y2="72" stroke="#c9a86c" stroke-width="2"/>
  
  <!-- Text Box Frame -->
  <rect x="32" y="108" width="136" height="40" fill="none" stroke="#c9a86c" stroke-width="2"/>
  
  <!-- Brand Name Text -->
  <text x="100" y="134" text-anchor="middle" font-family="Georgia, 'Times New Roman', serif" font-size="22" font-weight="500" fill="#c9a86c">Cocoa&amp;cherry</text>
  
  <!-- Bottom decorative line -->
  <line x1="28" y1="158" x2="172" y2="158" stroke="#c9a86c" stroke-width="2"/>
</svg>
