<svg xmlns="http://www.w3.org/2000/svg" viewBox="0 0 200 200">
  <!-- Background Circle -->
  <circle cx="100" cy="100" r="98" fill="#8b4a5c"/>
  
  <!-- Cake Icon - simplified to match reference -->
  <g fill="none" stroke="#c9a86c" stroke-width="2" stroke-linecap="round" stroke-linejoin="round">
    <!-- Three candles -->
    <line x1="82" y1="52" x2="82" y2="62"/>
    <line x1="100" y1="52" x2="100" y2="62"/>
    <line x1="118" y1="52" x2="118" y2="62"/>
    
    <!-- Three flames (small ovals) -->
    <ellipse cx="82" cy="48" rx="3" ry="4" fill="#c9a86c"/>
    <ellipse cx="100" cy="48" rx="3" ry="4" fill="#c9a86c"/>
    <ellipse cx="118" cy="48" rx="3" ry="4" fill="#c9a86c"/>
    
    <!-- Top cake layer -->
    <rect x="72" y="62" width="56" height="12" rx="1"/>
    
    <!-- Frosting decoration -->
    <path d="M72 74 Q80 80 88 74 Q96 80 104 74 Q112 80 120 74 L128 74"/>
    
    <!-- Bottom cake layer -->
    <rect x="66" y="78" width="68" height="14" rx="1"/>
    
    <!-- Bottom frosting wave -->
    <path d="M66 92 Q78 98 90 92 Q102 98 114 92 Q126 98 134 92"/>
  </g>
  
  <!-- Horizontal lines on sides of cake -->
  <line x1="25" y1="85" x2="62" y2="85" stroke="#c9a86c" stroke-width="2"/>
  <line x1="138" y1="85" x2="175" y2="85" stroke="#c9a86c" stroke-width="2"/>
  
  <!-- Text Box Frame -->
  <rect x="30" y="108" width="140" height="42" fill="none" stroke="#c9a86c" stroke-width="2"/>
  
  <!-- Text: Cocoa&cherry -->
  <text x="100" y="134" text-anchor="middle" font-family="Georgia, Times, serif" font-size="18" font-weight="500" fill="#c9a86c">Cocoa&amp;cherry</text>
  
  <!-- Bottom decorative line -->
  <line x1="25" y1="160" x2="175" y2="160" stroke="#c9a86c" stroke-width="2"/>
</svg>
